<?xml version="1.0" encoding="UTF-8" standalone="no"?>
<svg
   width="822.27173"
   height="156.47"
   viewBox="0 0 822.27175 156.47"
   fill="none"
   version="1.1"
   id="svg45"
   sodipodi:docname="tpu-logo-liderboard.svg"
   inkscape:version="1.4.2 (ebf0e940d0, 2025-05-08)"
   xmlns:inkscape="http://www.inkscape.org/namespaces/inkscape"
   xmlns:sodipodi="http://sodipodi.sourceforge.net/DTD/sodipodi-0.dtd"
   xmlns="http://www.w3.org/2000/svg"
   xmlns:svg="http://www.w3.org/2000/svg">
  <defs
     id="defs45">
    <rect
       x="26.269379"
       y="31.04563"
       width="585.88678"
       height="91.544807"
       id="rect45" />
  </defs>
  <sodipodi:namedview
     id="namedview45"
     pagecolor="#505050"
     bordercolor="#eeeeee"
     borderopacity="1"
     inkscape:showpageshadow="0"
     inkscape:pageopacity="0"
     inkscape:pagecheckerboard="0"
     inkscape:deskcolor="#505050"
     inkscape:zoom="0.62810775"
     inkscape:cx="717.23363"
     inkscape:cy="33.433754"
     inkscape:window-width="1920"
     inkscape:window-height="1131"
     inkscape:window-x="0"
     inkscape:window-y="0"
     inkscape:window-maximized="1"
     inkscape:current-layer="svg45">
    <inkscape:page
       x="4.439454e-12"
       y="0"
       width="822.27173"
       height="156.47"
       id="page47"
       margin="0"
       bleed="0" />
  </sodipodi:namedview>
  <path
     d="m 150.37149,65.3447 -25.058,-9.1201 -25.069,9.1201 L 75.186,56.2246 50.1167,65.3447 25.0584,56.2246 0,65.3447 v 31.8765 l 25.0584,9.1308 25.0583,-9.1308 25.0693,9.1308 25.05849,-9.1308 25.069,9.1308 25.058,-9.1308 z"
     fill="#000000"
     id="path1" />
  <path
     d="m 150.36149,15.2177 h 0.01 l -25.058,-9.12004 -25.069,9.12004 L 75.186,6.09766 50.1167,15.2177 25.0584,6.09766 0,15.2177 v 31.8875 l 25.0584,9.1201 25.0583,-9.1201 25.0693,9.1201 25.05849,-9.1201 25.069,9.1201 25.058,-9.1201 V 15.2177 Z"
     fill="#28be46"
     id="path2" />
  <path
     d="M 50.1159,15.2177 25.0466,24.3487 -0.01172,15.2177 25.0466,6.09766 Z"
     fill="#000000"
     id="path3" />
  <path
     d="M 100.23149,15.2177 75.1736,24.3487 50.1152,15.2177 75.1736,6.09766 Z"
     fill="#000000"
     id="path4" />
  <path
     d="m 150.36149,15.2177 -25.058,9.131 -25.069,-9.131 25.069,-9.12004 z"
     fill="#000000"
     id="path5" />
  <path
     d="M -0.01172,97.2197 25.0466,88.0996 50.1159,97.2197 25.0466,106.351 Z"
     fill="#28be46"
     id="path6" />
  <path
     d="m 100.24449,97.2197 25.058,-9.1201 25.069,9.1201 -25.069,9.1313 z"
     fill="#28be46"
     id="path7" />
  <path
     d="M 100.23149,65.3457 75.1736,74.4658 50.1152,65.3457 v 31.8766 l 25.0584,9.1307 25.05789,-9.1307 z"
     fill="#28be46"
     id="path8" />
  <path
     d="m 150.37149,115.474 -25.058,-9.12 -25.069,9.12 -25.05849,-9.12 -25.0693,9.12 -25.0583,-9.12 L 0,115.474 v 31.876 l 25.0584,9.12 25.0583,-9.12 25.0693,9.12 25.05849,-9.12 25.069,9.12 25.058,-9.12 z"
     fill="#000000"
     id="path9" />
  <path
     d="m -0.01172,147.351 25.05832,-9.121 25.0693,9.121 -25.0693,9.12 z"
     fill="#28be46"
     id="path10" />
  <path
     d="m 100.24449,147.351 25.058,-9.121 25.069,9.121 -25.069,9.12 z"
     fill="#28be46"
     id="path11" />
  <path
     d="m 100.23149,115.473 -25.05789,9.12 -25.0584,-9.12 v 31.876 l 25.0584,9.12 25.05789,-9.12 z"
     fill="#28be46"
     id="path12" />
  <path
     d="M 204.8813,81.20697 V 69.09346 h 3.37895 c 5.28022,0 7.76341,-2.52347 7.76341,-9.55079 V 20.71756 h 46.8632 V 80.8575 h -12.8908 V 32.75322 H 229.0302 v 27.6434 c 0,12.46291 -5.47424,20.77125 -19.17849,20.77125 z"
     fill="#000000"
     id="path22-4"
     style="stroke:#1a1a1a;stroke-width:15.6058;stroke-dasharray:none;stroke-opacity:0" />
  <path
     d="m 430.2567,21.1285 h 45.62059 v 12.11328 h -32.34173 v 11.64759 h 22.79073 v 11.64759 h -22.79073 v 12.50155 h 32.69057 V 81.15199 H 430.2567 Z"
     fill="#000000"
     id="path25-4"
     style="stroke:#1a1a1a;stroke-width:15.6058;stroke-dasharray:none;stroke-opacity:0" />
  <path
     d="m 491.82947,20.97266 h 23.68449 c 12.50072,0 21.9361,7.0265 21.9361,19.76253 0,12.73398 -9.62942,19.60566 -21.9361,19.60566 h -10.40558 v 20.81114 h -13.27891 z m 32.032,19.76253 c 0,-1.11878 -0.22084,-2.22519 -0.67701,-3.24696 -0.45617,-1.01971 -1.12704,-1.93002 -1.96713,-2.66693 -0.84223,-0.73691 -1.83096,-1.28393 -2.90232,-1.60388 -1.07131,-0.31994 -2.2004,-0.40458 -3.30679,-0.2477 h -9.89984 v 15.8798 h 9.89984 c 1.12703,0.1094 2.26442,-0.0208 3.3378,-0.37981 1.07547,-0.35918 2.06208,-0.94128 2.89604,-1.70502 0.83397,-0.76582 1.49862,-1.69883 1.95066,-2.73712 0.45002,-1.03828 0.6791,-2.1612 0.66875,-3.29238 z"
     fill="#000000"
     id="path40-2"
     style="stroke:#1a1a1a;stroke-width:15.6058;stroke-dasharray:none;stroke-opacity:0" />
  <path
     d="m 693.90443,20.9727 h 23.6852 c 12.5018,0 21.9356,7.02649 21.9356,19.76253 0,12.73397 -9.6277,19.60565 -21.9356,19.60565 h -10.4043 v 20.81115 h -13.2809 z m 32.0325,19.76253 c 0,-1.11879 -0.2198,-2.22519 -0.6758,-3.24697 -0.456,-1.01971 -1.1286,-1.93002 -1.9671,-2.66693 -0.8433,-0.73691 -1.8324,-1.28393 -2.9035,-1.60387 -1.0713,-0.31995 -2.1991,-0.40459 -3.3067,-0.24771 h -9.8985 v 15.8798 h 9.8985 c 1.1277,0.1094 2.2657,-0.0208 3.3391,-0.3798 1.0754,-0.35918 2.0618,-0.94128 2.8948,-1.70503 0.8339,-0.76582 1.4995,-1.69883 1.9514,-2.73711 0.4502,-1.03829 0.6788,-2.1612 0.6678,-3.29238 z"
     fill="#000000"
     id="path40-2-9"
     style="stroke:#1a1a1a;stroke-width:15.6058;stroke-dasharray:none;stroke-opacity:0" />
  <g
     id="g358"
     transform="matrix(5.9867933,0,0,5.9867933,-188.52913,-2162.1984)"
     style="stroke:#1a1a1a;stroke-width:2.60629;stroke-dasharray:none;stroke-opacity:0">
    <path
       id="path359"
       d="M 0,0 V 1.923 H 1.488 C 2.173,1.923 2.607,1.575 2.607,0.978 2.607,0.391 2.173,0 1.488,0 Z M 1.695,3.237 H 0 v 1.347 h 3.715 v 1.532 h -5.366 v -7.539 h 3.346 c 1.629,0 2.607,0.967 2.607,2.357 0,1.499 -1.054,2.303 -2.607,2.303"
       style="fill:#000000;fill-opacity:1;fill-rule:nonzero;stroke:#1a1a1a;stroke-width:1.95472;stroke-dasharray:none;stroke-opacity:0"
       transform="matrix(1.3333333,0,0,-1.3333333,126.07107,372.8192)" />
  </g>
  <path
     d="m 291.573,61.27346 28.11015,-40.14495 h 13.27897 v 60.13991 h -13.12423 v -40.3782 l -28.18646,40.3782 H 278.49016 V 21.12851 H 291.573 Z"
     fill="#000000"
     id="path23-3"
     style="stroke:#1a1a1a;stroke-width:15.6058;stroke-dasharray:none;stroke-opacity:0" />
  <path
     style="fill:#000000;fill-opacity:1;stroke:#1a1a1a;stroke-width:15.6058;stroke-dasharray:none;stroke-opacity:0"
     d="m 414.65336,67.64879 h -7.75364 V 21.12851 h -47.12784 v 26.10797 c 0,10.49984 -1.29224,17.56688 -6.11817,21.52453 h -5.08831 v 24.12925 h 12.76129 V 80.91652 h 40.4847 v 11.97374 h 12.84196 z m -47.39023,0 c 3.53356,-3.27102 5.00766,-9.81322 5.00766,-19.2832 V 32.07083 h 21.4437 v 35.57796 z"
     id="path46" />
  <path
     style="fill:#000000;fill-opacity:1;stroke:#1a1a1a;stroke-width:15.6058;stroke-dasharray:none;stroke-opacity:0"
     d="m 821.21793,67.49297 h -7.7538 V 20.97269 h -47.1285 v 26.10798 c 0,10.49984 -1.2914,17.56688 -6.1171,21.52452 h -5.0885 v 24.12924 h 12.7604 v -11.9737 h 40.4849 v 11.9737 h 12.8426 z m -47.3901,0 c 3.532,-3.27102 5.0076,-9.81321 5.0076,-19.2832 V 31.91502 h 21.4435 v 35.57795 z"
     id="path46-6" />
  <path
     d="m 648.01693,19.04163 c 6.1088,0.15274 12.038,2.10341 17.0418,5.60778 5.0056,3.50458 8.8655,8.40702 11.0969,14.09427 2.2335,5.68726 2.7357,11.90666 1.4522,17.87959 -1.2828,5.97314 -4.301,11.43457 -8.6757,15.70103 -4.3745,4.26648 -9.9092,7.14853 -15.9115,8.28527 -6.0019,1.13697 -12.20641,0.4782 -17.83551,-1.89373 -5.63134,-2.3719 -10.43688,-6.35189 -13.81801,-11.44136 -3.37907,-5.08967 -5.1832,-11.06323 -5.18523,-17.1728 -0.0821,-4.16802 0.68939,-8.30899 2.26852,-12.16674 1.58122,-3.85776 3.9364,-7.35017 6.91916,-10.2615 2.98469,-2.91132 6.53535,-5.17945 10.43046,-6.66402 3.8947,-1.48477 8.05481,-2.1546 12.21691,-1.96779 z m 18.1333,31.06005 c -0.039,-3.58694 -1.1391,-7.08203 -3.1582,-10.04538 -2.0216,-2.96314 -4.8767,-5.26182 -8.2011,-6.60623 -3.3249,-1.3444 -6.9748,-1.67405 -10.4859,-0.94808 -3.51431,0.72598 -6.73431,2.47538 -9.25481,5.02795 -2.51983,2.55258 -4.22691,5.79397 -4.90844,9.31589 -0.68093,3.52171 -0.30516,7.16624 1.08166,10.47451 1.38746,3.30807 3.72194,6.13188 6.71058,8.11536 2.9896,1.98348 6.49801,3.03787 10.08291,3.03043 2.4171,0.022 4.8145,-0.444 7.0484,-1.36938 2.2335,-0.92558 4.2564,-2.29166 5.9486,-4.01691 1.6922,-1.72525 3.0188,-3.77415 3.9009,-6.02412 0.884,-2.24976 1.304,-4.65454 1.2354,-7.07047 z"
     fill="#000000"
     id="path21-6"
     style="stroke:#1a1a1a;stroke-width:15.6058;stroke-dasharray:none;stroke-opacity:0" />
  <path
     d="m 204.8813,134.86097 h 5.961 v 14.333 h 3.939 v -14.333 h 5.987 v -3.654 h -15.887 z m 31.663,10.834 c -3.085,0 -5.443,-2.359 -5.443,-5.495 0,-3.136 2.358,-5.494 5.443,-5.494 3.058,0 5.416,2.384 5.416,5.494 0,3.11 -2.358,5.495 -5.416,5.495 z m -9.512,-5.495 c 0,5.313 4.043,9.253 9.512,9.253 5.442,0 9.485,-3.94 9.485,-9.253 0,-5.313 -4.043,-9.252 -9.485,-9.252 -5.469,0 -9.512,3.939 -9.512,9.252 z m 27.688,8.994 h 3.862 v -12.985 l 5.624,6.765 5.598,-6.817 v 13.037 h 3.836 v -17.987 h -4.121 l -5.313,6.298 -5.313,-6.298 h -4.173 z m 41.936,-11.922 2.825,-2.437 c -0.984,-1.632 -3.395,-3.887 -7.645,-3.887 -5.002,0 -9.512,3.706 -9.512,9.252 0,5.547 4.173,9.253 9.538,9.253 4.069,0 6.635,-2.255 7.619,-3.888 l -2.825,-2.436 c -0.933,1.27 -2.358,2.566 -4.768,2.566 -3.085,0 -5.495,-2.255 -5.495,-5.495 0,-3.239 2.41,-5.494 5.495,-5.494 2.41,0 3.835,1.296 4.768,2.566 z m 14.968,11.922 v -17.987 h -3.965 v 17.987 z m 0,-10.004 7.361,10.004 h 4.665 l -7.438,-10.16 6.297,-7.827 h -4.38 z m 23.583,-7.983 h -3.914 v 17.987 h 3.94 l 8.423,-12.078 v 12.078 h 3.913 v -17.987 h -3.965 l -8.397,12 z m 26.191,0 h -3.914 v 17.987 h 3.939 l 8.424,-12.078 v 12.078 h 3.913 v -17.987 h -3.965 l -8.397,12 z m -0.337,-5.754 c 0,2.722 1.969,4.38 4.509,4.38 2.54,0 4.484,-1.658 4.484,-4.38 h -2.877 c 0,0.985 -0.648,1.84 -1.607,1.84 -0.985,0 -1.581,-0.855 -1.581,-1.84 z m 50.373,5.754 h -16.172 v 17.987 h 3.965 v -14.333 h 8.268 v 14.333 h 3.939 z m 18.184,14.488 c -3.084,0 -5.442,-2.359 -5.442,-5.495 0,-3.136 2.358,-5.494 5.442,-5.494 3.059,0 5.417,2.384 5.417,5.494 0,3.11 -2.358,5.495 -5.417,5.495 z m -9.511,-5.495 c 0,5.313 4.043,9.253 9.511,9.253 5.443,0 9.486,-3.94 9.486,-9.253 0,-5.313 -4.043,-9.252 -9.486,-9.252 -5.468,0 -9.511,3.939 -9.511,9.252 z m 26.479,9.123 c 4.095,0 5.728,-2.488 5.728,-6.22 v -8.268 h 6.272 v 14.359 h 3.939 v -17.987 h -13.995 v 11.637 c 0,2.099 -0.803,2.851 -2.384,2.851 h -1.011 v 3.628 z m 29.795,-18.116 h -3.914 v 17.987 h 3.94 l 8.423,-12.078 v 12.078 h 3.914 v -17.987 h -3.966 l -8.397,12 z m 20.593,3.654 h 5.961 v 14.333 h 3.939 v -14.333 h 5.987 v -3.654 h -15.887 z m 24.154,14.333 h 13.737 v -3.629 h -9.771 v -3.732 h 6.816 v -3.499 h -6.816 v -3.499 h 9.667 v -3.628 h -13.633 z m 25.603,-17.987 h -4.795 l 6.661,8.864 -6.92,9.123 h 4.536 l 4.82,-6.272 4.847,6.272 h 4.846 l -6.92,-9.123 6.635,-8.864 h -4.509 l -4.562,6.116 z"
     fill="#28be46"
     id="path1-3" />
</svg>
